<svg width="50" height="50" viewBox="0 0 50 50" fill="none" xmlns="http://www.w3.org/2000/svg">
<rect width="50" height="50" fill="white"/>
<path d="M48.4141 22.9375L38.5703 6.15625C37.8203 4.84375 36.4141 4 34.9141 4H15.1328C13.6328 4 12.2266 4.84375 11.4766 6.15625L1.63281 22.9375C0.789062 24.25 0.789062 25.8438 1.63281 27.1562L11.4766 43.9375C12.2266 45.25 13.6328 46 15.1328 46H34.9141C36.4141 46 37.8203 45.25 38.5703 43.9375L48.4141 27.1562C49.2578 25.8438 49.2578 24.25 48.4141 22.9375ZM22.8203 15.25C22.8203 14.0312 23.7578 13 25.0703 13C26.2891 13 27.3203 14.0312 27.3203 15.25V27.25C27.3203 28.5625 26.2891 29.5 25.0703 29.5C23.7578 29.5 22.8203 28.5625 22.8203 27.25V15.25ZM25.0703 38.5C23.3828 38.5 22.0703 37.1875 22.0703 35.5938C22.0703 34 23.3828 32.6875 25.0703 32.6875C26.6641 32.6875 27.9766 34 27.9766 35.5938C27.9766 37.1875 26.6641 38.5 25.0703 38.5Z" fill="#D3354F"/>
</svg>
