<svg fill="none" height="50" viewBox="0 0 50 50" width="50" xmlns="http://www.w3.org/2000/svg"><path d="m0 0h50v50h-50z" fill="#fff"/><path d="m48.4954 40.0938-19.9688-34.12505c-1.5937-2.625-5.4375-2.625-6.9375 0l-20.06249 34.12505c-1.4999974 2.625.375 5.9062 3.46875 5.9062h40.03124c3.0938 0 4.9688-3.2812 3.4688-5.9062zm-25.6875-23.3438c0-1.2188.9375-2.25 2.25-2.25 1.2187 0 2.25 1.0312 2.25 2.25v12c0 1.3125-1.0313 2.25-2.25 2.25-1.125 0-2.25-.9375-2.25-2.25zm2.25 23.25c-1.6875 0-3-1.3125-3-2.9062 0-1.5938 1.3125-2.9063 3-2.9063 1.5937 0 2.9062 1.3125 2.9062 2.9063 0 1.5937-1.3125 2.9062-2.9062 2.9062z" fill="#ecca51"/></svg>