<svg fill="none" height="50" viewBox="0 0 50 50" width="50" xmlns="http://www.w3.org/2000/svg"><path d="m0 0h50v50h-50z" fill="#fff"/><path d="m25 1c-13.3125 0-24 10.7812-24 24 0 13.3125 10.6875 24 24 24 13.2188 0 24-10.6875 24-24 0-13.2188-10.7812-24-24-24zm10.7812 19.875-12 12c-.4687.5625-1.125.75-1.7812.75-.75 0-1.4062-.1875-1.875-.75l-6-6c-1.0312-1.0312-1.0312-2.625 0-3.6562 1.0312-1.0313 2.625-1.0313 3.6562 0l4.2188 4.125 10.125-10.125c1.0312-1.0313 2.625-1.0313 3.6562 0 1.0313 1.0312 1.0313 2.625 0 3.6562z" fill="#068677"/></svg>